<svg width="16" height="6" viewBox="0 0 16 6" fill="none" xmlns="http://www.w3.org/2000/svg">
<path d="M5.57172 0V5.63487H5.00068V1.13514L2.99388 5.63487H2.57784L0.57104 1.15147V5.63487H0V0H0.603671L2.78178 4.88356L4.95989 0H5.57172Z" fill="#525252"/>
<path d="M8.81683 5.7002C8.39807 5.7002 8.0201 5.60765 7.68291 5.42254C7.35116 5.23199 7.0874 4.96522 6.89161 4.62223C6.70127 4.27379 6.60609 3.86819 6.60609 3.40542C6.60609 2.94266 6.70399 2.53978 6.89977 2.19678C7.09556 1.84835 7.36204 1.58158 7.69923 1.39647C8.03641 1.20592 8.41439 1.11064 8.83315 1.11064C9.25191 1.11064 9.62989 1.20592 9.96707 1.39647C10.3097 1.58158 10.5762 1.84835 10.7665 2.19678C10.9623 2.53978 11.0602 2.94266 11.0602 3.40542C11.0602 3.86275 10.9623 4.26562 10.7665 4.61406C10.5707 4.9625 10.3015 5.23199 9.95891 5.42254C9.61629 5.60765 9.2356 5.7002 8.81683 5.7002ZM8.81683 5.20205C9.11051 5.20205 9.38243 5.13672 9.63261 5.00605C9.88277 4.86994 10.084 4.6685 10.2363 4.40173C10.394 4.12952 10.4729 3.79741 10.4729 3.40542C10.4729 3.01343 10.3967 2.68405 10.2444 2.41728C10.0922 2.14506 9.89093 1.94362 9.64076 1.81296C9.39059 1.67685 9.11867 1.6088 8.82499 1.6088C8.53131 1.6088 8.25939 1.67685 8.00922 1.81296C7.75905 1.94362 7.55783 2.14506 7.40555 2.41728C7.25871 2.68405 7.18529 3.01343 7.18529 3.40542C7.18529 3.79741 7.25871 4.12952 7.40555 4.40173C7.55783 4.6685 7.75633 4.86994 8.00106 5.00605C8.25123 5.13672 8.52316 5.20205 8.81683 5.20205Z" fill="#525252"/>
<path d="M14.1895 1.09431C14.7225 1.09431 15.1576 1.26036 15.4948 1.59246C15.8319 1.91912 16.0005 2.3955 16.0005 3.0216V5.63487H15.4376V3.08693C15.4376 2.60239 15.3153 2.23217 15.0706 1.97629C14.8313 1.72041 14.5022 1.59246 14.0835 1.59246C13.6538 1.59246 13.3112 1.72857 13.0556 2.00079C12.8 2.273 12.6722 2.67316 12.6722 3.20126V5.63487H12.1011V1.17597H12.6722V1.93546C12.8136 1.66324 13.0175 1.45636 13.284 1.3148C13.5505 1.16781 13.8523 1.09431 14.1895 1.09431Z" fill="#525252"/>
</svg>
