<svg width="92" height="22" viewBox="0 0 92 22" fill="none" xmlns="http://www.w3.org/2000/svg">
<path d="M3.52273 17L0.340909 5.36364H1.77273L4.20455 14.8409H4.31818L6.79545 5.36364H8.38636L10.8636 14.8409H10.9773L13.4091 5.36364H14.8409L11.6591 17H10.2045L7.63636 7.72727H7.54545L4.97727 17H3.52273ZM16.4148 17V8.27273H17.7557V17H16.4148ZM17.0966 6.81818C16.8352 6.81818 16.6098 6.72917 16.4205 6.55114C16.2348 6.37311 16.142 6.15909 16.142 5.90909C16.142 5.65909 16.2348 5.44508 16.4205 5.26705C16.6098 5.08902 16.8352 5 17.0966 5C17.358 5 17.5814 5.08902 17.767 5.26705C17.9564 5.44508 18.0511 5.65909 18.0511 5.90909C18.0511 6.15909 17.9564 6.37311 17.767 6.55114C17.5814 6.72917 17.358 6.81818 17.0966 6.81818ZM20.2116 17V8.27273H21.5071V9.59091H21.598C21.7571 9.15909 22.045 8.80871 22.4616 8.53977C22.8783 8.27083 23.348 8.13636 23.8707 8.13636C23.9692 8.13636 24.0923 8.13826 24.2401 8.14205C24.3878 8.14583 24.4995 8.15152 24.5753 8.15909V9.52273C24.5298 9.51136 24.4257 9.49432 24.2628 9.47159C24.1037 9.44508 23.9351 9.43182 23.7571 9.43182C23.3329 9.43182 22.9541 9.52083 22.6207 9.69886C22.2912 9.87311 22.0298 10.1155 21.8366 10.4261C21.6473 10.733 21.5526 11.0833 21.5526 11.4773V17H20.2116ZM29.5582 17.1818C28.7173 17.1818 27.992 16.9962 27.3821 16.625C26.776 16.25 26.3082 15.7273 25.9787 15.0568C25.6529 14.3826 25.4901 13.5985 25.4901 12.7045C25.4901 11.8106 25.6529 11.0227 25.9787 10.3409C26.3082 9.6553 26.7666 9.12121 27.3537 8.73864C27.9446 8.35227 28.634 8.15909 29.4219 8.15909C29.8764 8.15909 30.3253 8.23485 30.7685 8.38636C31.2116 8.53788 31.6151 8.78409 31.9787 9.125C32.3423 9.46212 32.6321 9.90909 32.848 10.4659C33.0639 11.0227 33.1719 11.7083 33.1719 12.5227V13.0909H26.4446V11.9318H31.8082C31.8082 11.4394 31.7098 11 31.5128 10.6136C31.3196 10.2273 31.0431 9.92235 30.6832 9.69886C30.3272 9.47538 29.9067 9.36364 29.4219 9.36364C28.8878 9.36364 28.4257 9.49621 28.0355 9.76136C27.6491 10.0227 27.3518 10.3636 27.1435 10.7841C26.9351 11.2045 26.831 11.6553 26.831 12.1364V12.9091C26.831 13.5682 26.9446 14.1269 27.1719 14.5852C27.4029 15.0398 27.723 15.3864 28.1321 15.625C28.5412 15.8598 29.0166 15.9773 29.5582 15.9773C29.9105 15.9773 30.2287 15.928 30.5128 15.8295C30.8007 15.7273 31.0488 15.5758 31.2571 15.375C31.4654 15.1705 31.6264 14.9167 31.7401 14.6136L33.0355 14.9773C32.8991 15.4167 32.67 15.803 32.348 16.1364C32.026 16.4659 31.6283 16.7235 31.1548 16.9091C30.6813 17.0909 30.1491 17.1818 29.5582 17.1818ZM39.098 8.27273V9.40909H34.3935V8.27273H39.098ZM35.8026 17V7.06818C35.8026 6.56818 35.92 6.15151 36.1548 5.81818C36.3897 5.48485 36.6946 5.23485 37.0696 5.06818C37.4446 4.90151 37.8404 4.81818 38.2571 4.81818C38.5866 4.81818 38.8556 4.8447 39.0639 4.89773C39.2723 4.95076 39.4276 5 39.5298 5.04545L39.1435 6.20455C39.0753 6.18182 38.9806 6.15341 38.8594 6.11932C38.742 6.08523 38.5866 6.06818 38.3935 6.06818C37.9503 6.06818 37.6302 6.17992 37.4332 6.40341C37.2401 6.62689 37.1435 6.95455 37.1435 7.38636V17H35.8026ZM40.9773 17V8.27273H42.2727V9.59091H42.3636C42.5227 9.15909 42.8106 8.80871 43.2273 8.53977C43.6439 8.27083 44.1136 8.13636 44.6364 8.13636C44.7348 8.13636 44.858 8.13826 45.0057 8.14205C45.1534 8.14583 45.2652 8.15152 45.3409 8.15909V9.52273C45.2955 9.51136 45.1913 9.49432 45.0284 9.47159C44.8693 9.44508 44.7008 9.43182 44.5227 9.43182C44.0985 9.43182 43.7197 9.52083 43.3864 9.69886C43.0568 9.87311 42.7955 10.1155 42.6023 10.4261C42.4129 10.733 42.3182 11.0833 42.3182 11.4773V17H40.9773ZM49.4986 17.2045C48.9455 17.2045 48.4437 17.1004 47.9929 16.892C47.5421 16.6799 47.1842 16.375 46.919 15.9773C46.6539 15.5758 46.5213 15.0909 46.5213 14.5227C46.5213 14.0227 46.6198 13.6174 46.8168 13.3068C47.0137 12.9924 47.277 12.7462 47.6065 12.5682C47.9361 12.3902 48.2997 12.2576 48.6974 12.1705C49.099 12.0795 49.5024 12.0076 49.9077 11.9545C50.438 11.8864 50.8679 11.8352 51.1974 11.8011C51.5308 11.7633 51.7732 11.7008 51.9247 11.6136C52.08 11.5265 52.1577 11.375 52.1577 11.1591V11.1136C52.1577 10.553 52.0043 10.1174 51.6974 9.80682C51.3944 9.49621 50.9342 9.34091 50.3168 9.34091C49.6766 9.34091 49.1747 9.48106 48.8111 9.76136C48.4474 10.0417 48.1918 10.3409 48.044 10.6591L46.7713 10.2045C46.9986 9.67424 47.3016 9.26136 47.6804 8.96591C48.063 8.66667 48.4796 8.45833 48.9304 8.34091C49.3849 8.2197 49.8319 8.15909 50.2713 8.15909C50.5516 8.15909 50.8736 8.19318 51.2372 8.26136C51.6046 8.32576 51.9588 8.46023 52.2997 8.66477C52.6444 8.86932 52.9304 9.17803 53.1577 9.59091C53.3849 10.0038 53.4986 10.5568 53.4986 11.25V17H52.1577V15.8182H52.0895C51.9986 16.0076 51.8471 16.2102 51.6349 16.4261C51.4228 16.642 51.1406 16.8258 50.7884 16.9773C50.4361 17.1288 50.0062 17.2045 49.4986 17.2045ZM49.7031 16C50.2334 16 50.6804 15.8958 51.044 15.6875C51.4115 15.4792 51.688 15.2102 51.8736 14.8807C52.063 14.5511 52.1577 14.2045 52.1577 13.8409V12.6136C52.1009 12.6818 51.9759 12.7443 51.7827 12.8011C51.5933 12.8542 51.3736 12.9015 51.1236 12.9432C50.8774 12.9811 50.6368 13.0152 50.402 13.0455C50.1709 13.072 49.9834 13.0947 49.8395 13.1136C49.491 13.1591 49.1652 13.233 48.8622 13.3352C48.563 13.4337 48.3205 13.5833 48.1349 13.7841C47.9531 13.9811 47.8622 14.25 47.8622 14.5909C47.8622 15.0568 48.0346 15.4091 48.3793 15.6477C48.7277 15.8826 49.169 16 49.7031 16ZM55.946 17V8.27273H57.2415V9.63636H57.3551C57.5369 9.17045 57.8305 8.80871 58.2358 8.55114C58.6411 8.28977 59.1278 8.15909 59.696 8.15909C60.2718 8.15909 60.7509 8.28977 61.1335 8.55114C61.5199 8.80871 61.821 9.17045 62.0369 9.63636H62.1278C62.3513 9.18561 62.6866 8.82765 63.1335 8.5625C63.5805 8.29356 64.1165 8.15909 64.7415 8.15909C65.5218 8.15909 66.16 8.40341 66.6562 8.89205C67.1525 9.37689 67.4006 10.1326 67.4006 11.1591V17H66.0597V11.1591C66.0597 10.5152 65.8835 10.0549 65.5312 9.77841C65.179 9.50189 64.7642 9.36364 64.2869 9.36364C63.6733 9.36364 63.1979 9.54924 62.8608 9.92045C62.5237 10.2879 62.3551 10.7538 62.3551 11.3182V17H60.9915V11.0227C60.9915 10.5265 60.8305 10.1269 60.5085 9.82386C60.1866 9.51705 59.7718 9.36364 59.2642 9.36364C58.9157 9.36364 58.59 9.45644 58.2869 9.64205C57.9877 9.82765 57.7453 10.0852 57.5597 10.4148C57.3778 10.7405 57.2869 11.1174 57.2869 11.5455V17H55.946ZM69.8523 17V8.27273H71.1932V17H69.8523ZM70.5341 6.81818C70.2727 6.81818 70.0473 6.72917 69.858 6.55114C69.6723 6.37311 69.5795 6.15909 69.5795 5.90909C69.5795 5.65909 69.6723 5.44508 69.858 5.26705C70.0473 5.08902 70.2727 5 70.5341 5C70.7955 5 71.0189 5.08902 71.2045 5.26705C71.3939 5.44508 71.4886 5.65909 71.4886 5.90909C71.4886 6.15909 71.3939 6.37311 71.2045 6.55114C71.0189 6.72917 70.7955 6.81818 70.5341 6.81818ZM74.9901 11.75V17H73.6491V8.27273H74.9446V9.63636H75.0582C75.2628 9.19318 75.5734 8.83712 75.9901 8.56818C76.4067 8.29545 76.9446 8.15909 77.6037 8.15909C78.1946 8.15909 78.7116 8.2803 79.1548 8.52273C79.598 8.76136 79.9427 9.125 80.1889 9.61364C80.4351 10.0985 80.5582 10.7121 80.5582 11.4545V17H79.2173V11.5455C79.2173 10.8598 79.0393 10.3258 78.6832 9.94318C78.3272 9.55682 77.8385 9.36364 77.2173 9.36364C76.7893 9.36364 76.4067 9.45644 76.0696 9.64205C75.7363 9.82765 75.473 10.0985 75.2798 10.4545C75.0866 10.8106 74.9901 11.2424 74.9901 11.75ZM86.5312 20.4545C85.8835 20.4545 85.3267 20.3712 84.8608 20.2045C84.3949 20.0417 84.0066 19.8258 83.696 19.5568C83.3892 19.2917 83.1449 19.0076 82.9631 18.7045L84.0312 17.9545C84.1525 18.1136 84.3059 18.2955 84.4915 18.5C84.6771 18.7083 84.9309 18.8883 85.2528 19.0398C85.5786 19.1951 86.0047 19.2727 86.5312 19.2727C87.2358 19.2727 87.8172 19.1023 88.2756 18.7614C88.7339 18.4205 88.9631 17.8864 88.9631 17.1591V15.3864H88.8494C88.7509 15.5455 88.6108 15.7424 88.429 15.9773C88.2509 16.2083 87.9934 16.4148 87.6562 16.5966C87.3229 16.7746 86.8722 16.8636 86.304 16.8636C85.5994 16.8636 84.9669 16.697 84.4062 16.3636C83.8494 16.0303 83.4081 15.5455 83.0824 14.9091C82.7604 14.2727 82.5994 13.5 82.5994 12.5909C82.5994 11.697 82.7566 10.9186 83.071 10.2557C83.3854 9.58901 83.8229 9.07386 84.3835 8.71023C84.9441 8.3428 85.5919 8.15909 86.3267 8.15909C86.8949 8.15909 87.3456 8.25379 87.679 8.44318C88.0161 8.62879 88.2737 8.84091 88.4517 9.07955C88.6335 9.31439 88.7737 9.50758 88.8722 9.65909H89.0085V8.27273H90.304V17.25C90.304 18 90.1335 18.6098 89.7926 19.0795C89.4555 19.553 89.0009 19.8996 88.429 20.1193C87.8608 20.3428 87.2282 20.4545 86.5312 20.4545ZM86.4858 15.6591C87.0237 15.6591 87.4782 15.536 87.8494 15.2898C88.2206 15.0436 88.5028 14.6894 88.696 14.2273C88.8892 13.7652 88.9858 13.2121 88.9858 12.5682C88.9858 11.9394 88.8911 11.3845 88.7017 10.9034C88.5123 10.4223 88.232 10.0455 87.8608 9.77273C87.4896 9.5 87.0313 9.36364 86.4858 9.36364C85.9176 9.36364 85.4441 9.50758 85.0653 9.79545C84.6903 10.0833 84.4081 10.4697 84.2188 10.9545C84.0331 11.4394 83.9403 11.9773 83.9403 12.5682C83.9403 13.1742 84.035 13.7102 84.2244 14.1761C84.4176 14.6383 84.7017 15.0019 85.0767 15.267C85.4555 15.5284 85.9252 15.6591 86.4858 15.6591Z" fill="#1E1E1E"/>
</svg>
